<svg width="25" height="25" viewBox="0 0 25 25" fill="none" xmlns="http://www.w3.org/2000/svg">
<path fill-rule="evenodd" clip-rule="evenodd" d="M12.5 2.5C6.98 2.5 2.5 6.98 2.5 12.5C2.5 18.02 6.98 22.5 12.5 22.5C18.02 22.5 22.5 18.02 22.5 12.5C22.5 6.98 18.02 2.5 12.5 2.5ZM7.57 18.78C8 17.88 10.62 17 12.5 17C14.38 17 17.01 17.88 17.43 18.78C16.07 19.86 14.36 20.5 12.5 20.5C10.64 20.5 8.93 19.86 7.57 18.78ZM12.5 15C13.96 15 17.43 15.59 18.86 17.33C19.88 15.99 20.5 14.32 20.5 12.5C20.5 8.09 16.91 4.5 12.5 4.5C8.09 4.5 4.5 8.09 4.5 12.5C4.5 14.32 5.12 15.99 6.14 17.33C7.57 15.59 11.04 15 12.5 15ZM12.5 6.5C10.56 6.5 9 8.06 9 10C9 11.94 10.56 13.5 12.5 13.5C14.44 13.5 16 11.94 16 10C16 8.06 14.44 6.5 12.5 6.5ZM11 10C11 10.83 11.67 11.5 12.5 11.5C13.33 11.5 14 10.83 14 10C14 9.17 13.33 8.5 12.5 8.5C11.67 8.5 11 9.17 11 10Z" fill="#6200E8"/>
</svg>
