<svg width="20" height="20" viewBox="0 0 20 20" fill="none" xmlns="http://www.w3.org/2000/svg">
<path d="M11.5693 9.98025C11.2466 9.94302 10.9115 9.9182 10.5888 9.88096C8.62779 9.7072 6.65436 9.52103 4.69335 9.34727C3.7749 9.26039 2.85645 9.17351 1.938 9.08663C1.87594 9.08663 1.77665 8.99975 1.76424 8.92528C1.1809 6.64156 0.609972 4.35785 0.0514552 2.07414C-0.109894 1.41633 0.113513 0.832991 0.647206 0.398589C1.19331 -0.0358125 1.81389 -0.122693 2.44687 0.175183C3.30326 0.584762 4.14724 1.01916 5.00364 1.44115C9.63312 3.74969 14.2626 6.07064 18.8921 8.37917C19.401 8.6274 19.7733 8.98733 19.9346 9.53344C20.1581 10.3402 19.7981 11.147 19.0162 11.5441C17.1917 12.4626 15.3548 13.3686 13.5303 14.2871C9.88135 16.1115 6.23237 17.936 2.5834 19.7605C1.49119 20.3066 0.287273 19.7605 0.0514552 18.6063C0.00180923 18.3332 0.0142207 18.0353 0.0886896 17.7747C0.622383 15.5654 1.19331 13.3562 1.72701 11.147C1.77665 10.9608 1.85112 10.9111 2.03729 10.8987C3.99831 10.725 5.97173 10.5388 7.93275 10.3526C9.11184 10.2409 10.2909 10.1416 11.47 10.0299C11.5073 10.0299 11.5445 10.0299 11.5817 10.0175C11.5817 10.0051 11.5817 9.98025 11.5817 9.96784L11.5693 9.98025Z" fill="#272833" fill-opacity="0.2"/>
</svg>
