<?xml version="1.0" encoding="UTF-8"?>
<svg id="Capa_1" xmlns="http://www.w3.org/2000/svg" viewBox="0 0 145 676">
  <defs>
    <style>
      .cls-1 {
        fill: #fff;
      }
    </style>
  </defs>
  <path class="cls-1" d="M.34,2.08c1.12,9.09,2.53,18.1,4.78,26.98,1.98,7.81,4.63,15.37,8.66,22.4,5.23,9.13,12.56,16.14,21.59,21.44,7.01,4.11,14.5,7.12,22.2,9.65,1.06.35,1.05.35.68,1.42-1.31,3.78-2.42,7.62-3.08,11.6-1.35,8.21.25,15.76,4.75,22.74,2.52,3.9,5.52,7.38,8.74,10.73,1.78,1.84,3.63,3.62,5.51,5.35.37.34.47.62.3,1.11-1.8,5.33-3.4,10.73-4.68,16.2-1.25,5.35-2.15,10.76-2.43,16.25-.62,12,3.01,22.61,10.3,32.08,2.63,3.41,5.44,6.62,8.47,9.68.42.42.51.78.34,1.35-1.43,4.82-2.57,9.72-3.08,14.74-.75,7.3.52,14.27,3.52,20.95,1.05,2.35,2.18,4.65,3.46,6.89.25.44.27.81.12,1.29-1.52,4.74-2.58,9.6-2.84,14.58-.32,5.99.55,11.78,3.22,17.21.8,1.63,1.75,3.19,2.71,4.76.26.43.5.86.75,1.29.52.89.54,1.71.02,2.68-2.94,5.48-5.29,11.19-6.5,17.3-1.14,5.76-1.22,11.48.78,17.1.48,1.34,1.08,2.64,1.81,3.88.22.37.19.6-.02.94-3.62,5.8-7.04,11.72-10.07,17.84-3.65,7.37-6.73,14.94-8.66,22.96-1.13,4.72-1.81,9.51-1.97,14.37-.31,9.21,1.38,18.1,4.35,26.79,2.81,8.22,6.57,16,10.73,23.59,1.16,2.13,2.38,4.23,3.6,6.33.24.41.25.62-.15.95-3.29,2.7-6.48,5.5-9.23,8.76-2.49,2.96-4.37,6.22-5.09,10.07-.5,2.69-.44,5.38-.13,8.07.37,3.27,1.03,6.48,1.77,9.69.09.4-.02.59-.33.81-4.01,2.83-7.87,5.82-11.45,9.19-5.7,5.36-10.27,11.49-12.9,18.93-1.45,4.11-2.3,8.37-2.72,12.7-.66,6.89-.42,13.75.27,20.61.15,1.51-.13,2.67-1.09,3.9-2.94,3.75-5.46,7.79-7.11,12.3-1.14,3.15-1.74,6.4-1.84,9.76-.15,4.79.61,9.49,1.59,14.15.08.4.03.63-.31.88-3.98,3.01-7.76,6.24-11.28,9.77-8.98,8.96-15.1,19.55-18.39,31.79-1.51,5.66-2.51,11.41-3.15,17.21-.63,5.69-.97,11.4-1.14,17.11-.13,4.26-.18,8.53-.2,12.79h139.47V0H0c.29.66.25,1.38.34,2.08Z"/>
</svg>