<?xml version="1.0" encoding="UTF-8"?>
<svg id="Capa_1" xmlns="http://www.w3.org/2000/svg" viewBox="0 0 676 145">
  <defs>
    <style>
      .cls-1 {
        fill: #fff;
      }
    </style>
  </defs>
  <path class="cls-1" d="M673.92.34c-9.09,1.12-18.1,2.53-26.98,4.78-7.81,1.98-15.37,4.63-22.4,8.66-9.13,5.23-16.14,12.56-21.44,21.59-4.11,7.01-7.12,14.5-9.65,22.2-.35,1.06-.35,1.05-1.42.68-3.78-1.31-7.62-2.42-11.6-3.08-8.21-1.35-15.76.25-22.74,4.75-3.9,2.52-7.38,5.52-10.73,8.74-1.84,1.78-3.62,3.63-5.35,5.51-.34.37-.62.47-1.11.3-5.33-1.8-10.73-3.4-16.2-4.68-5.35-1.25-10.76-2.15-16.25-2.43-12-.62-22.61,3.01-32.08,10.3-3.41,2.63-6.62,5.44-9.68,8.47-.42.42-.78.51-1.35.34-4.82-1.43-9.72-2.57-14.74-3.08-7.3-.75-14.27.52-20.95,3.52-2.35,1.05-4.65,2.18-6.89,3.46-.44.25-.81.27-1.29.12-4.74-1.52-9.6-2.58-14.58-2.84-5.99-.32-11.78.55-17.21,3.22-1.63.8-3.19,1.75-4.76,2.71-.43.26-.86.5-1.29.75-.89.52-1.71.54-2.68.02-5.48-2.94-11.19-5.29-17.3-6.5-5.76-1.14-11.48-1.22-17.1.78-1.34.48-2.64,1.08-3.88,1.81-.37.22-.6.19-.94-.02-5.8-3.62-11.72-7.04-17.84-10.07-7.37-3.65-14.94-6.73-22.96-8.66-4.72-1.13-9.51-1.81-14.37-1.97-9.21-.31-18.1,1.38-26.79,4.35-8.22,2.81-16,6.57-23.59,10.73-2.13,1.16-4.23,2.38-6.33,3.6-.41.24-.62.25-.95-.15-2.7-3.29-5.5-6.48-8.76-9.23-2.96-2.49-6.22-4.37-10.07-5.09-2.69-.5-5.38-.44-8.07-.13-3.27.37-6.48,1.03-9.69,1.77-.4.09-.59-.02-.81-.33-2.83-4.01-5.82-7.87-9.19-11.45-5.36-5.7-11.49-10.27-18.93-12.9-4.11-1.45-8.37-2.3-12.7-2.72-6.89-.66-13.75-.42-20.61.27-1.51.15-2.67-.13-3.9-1.09-3.75-2.94-7.79-5.46-12.3-7.11-3.15-1.14-6.4-1.74-9.76-1.84-4.79-.15-9.49.61-14.15,1.59-.4.08-.63.03-.88-.31-3.01-3.98-6.24-7.76-9.77-11.28-8.96-8.98-19.55-15.1-31.79-18.39-5.66-1.51-11.41-2.51-17.21-3.15-5.69-.63-11.4-.97-17.11-1.14C8.53,5.6,4.26,5.55,0,5.53v139.47h676V0c-.66.29-1.38.25-2.08.34Z"/>
</svg>