<svg width="6" height="21" viewBox="0 0 6 21" fill="none" xmlns="http://www.w3.org/2000/svg">
<g clip-path="url(#clip0_2244_3955)">
<path d="M3.72864 0.00878906C3.82704 0.0333891 3.92544 0.0661891 4.01564 0.0907891C5.30304 0.402389 6.13124 1.60779 5.98364 2.91979C5.83604 4.20719 4.71264 5.20759 3.40884 5.20759C2.11323 5.20759 1.00623 4.23999 0.834035 2.94439C0.645435 1.56679 1.60484 0.279389 2.96604 0.0497891C3.00704 0.0415891 3.03984 0.0251891 3.08084 0.00878906C3.30224 0.00878906 3.51544 0.00878906 3.73684 0.00878906H3.72864Z" fill="#272833"/>
<path d="M6.00022 10.623C6.00022 12.058 4.85222 13.2142 3.42542 13.2306C1.99862 13.247 0.817823 12.0662 0.826023 10.6312C0.826023 9.19624 1.98222 8.04004 3.41722 8.04004C4.85222 8.04004 6.00842 9.18804 6.00842 10.6312L6.00022 10.623Z" fill="#272833"/>
<path d="M6.00061 18.3891C6.00061 19.8241 4.84441 20.9803 3.41761 20.9885C1.97441 20.9885 0.81001 19.8241 0.81821 18.3891C0.81821 16.9541 1.98261 15.7979 3.40941 15.7979C4.83621 15.7979 5.99241 16.9623 6.00061 18.3973V18.3891Z" fill="#272833"/>
</g>
<defs>
<clipPath id="clip0_2244_3955">
<rect width="20.9756" height="5.1906" fill="white" transform="matrix(0 1 -1 0 6 0.0117188)"/>
</clipPath>
</defs>
</svg>
