<svg width="16" height="17" viewBox="0 0 16 17" fill="none" xmlns="http://www.w3.org/2000/svg">
<g clip-path="url(#clip0_1551_6931)">
<rect y="0.5" width="16" height="16" rx="8" fill="white"/>
<path d="M8 16.5C12.4183 16.5 16 12.9183 16 8.5C16 4.08172 12.4183 0.5 8 0.5C3.58172 0.5 0 4.08172 0 8.5C0.00478125 12.9163 3.58369 16.4952 8 16.5ZM7.33334 4.5C7.33334 4.13181 7.63181 3.83334 8 3.83334C8.36819 3.83334 8.66666 4.13181 8.66666 4.5V9.83334C8.66666 10.2015 8.36819 10.5 8 10.5C7.63181 10.5 7.33334 10.2015 7.33334 9.83334V4.5ZM8 12.5C8.36819 12.5 8.66666 12.7985 8.66666 13.1667C8.66666 13.5348 8.36819 13.8333 8 13.8333C7.63181 13.8333 7.33334 13.5348 7.33334 13.1667C7.33334 12.7985 7.63181 12.5 8 12.5Z" fill="#D50000"/>
</g>
<defs>
<clipPath id="clip0_1551_6931">
<rect y="0.5" width="16" height="16" rx="8" fill="white"/>
</clipPath>
</defs>
</svg>
