<svg class="icon-close" width="19" height="19" viewBox="0 0 19 19" fill="none" xmlns="http://www.w3.org/2000/svg">
<path d="M11.3389 9.50206L18.6829 1.93766C19.1775 1.42794 19.0835 0.680756 18.4712 0.268382C17.8589 -0.144783 16.9636 -0.0648408 16.469 0.444888L9.5067 7.61591L2.54435 0.444888C1.36624 -0.757407 -0.835244 0.727454 0.330526 1.93845L7.6745 9.50286L0.330526 17.0665C-0.164072 17.5762 -0.070089 18.3234 0.542225 18.7357C1.14979 19.1465 2.04785 19.0713 2.54435 18.5592L9.5067 11.3882L16.469 18.5592C16.9665 19.0713 17.8645 19.1465 18.4712 18.7357C19.0835 18.3234 19.1775 17.5754 18.6829 17.0665L11.3389 9.50206Z" fill="#ECECEC"/>
</svg>
