<svg width="129" height="43" viewBox="0 0 129 43" fill="none" xmlns="http://www.w3.org/2000/svg">
<path d="M2.656 26V3.6H12.352C14.3573 3.6 16.0853 3.93067 17.536 4.592C18.9867 5.232 20.1067 6.16 20.896 7.376C21.6853 8.592 22.08 10.0427 22.08 11.728C22.08 13.392 21.6853 14.832 20.896 16.048C20.1067 17.264 18.9867 18.2027 17.536 18.864C16.0853 19.504 14.3573 19.824 12.352 19.824H5.536L7.84 17.488V26H2.656ZM7.84 18.064L5.536 15.6H12.064C13.664 15.6 14.8587 15.2587 15.648 14.576C16.4373 13.8933 16.832 12.944 16.832 11.728C16.832 10.4907 16.4373 9.53067 15.648 8.848C14.8587 8.16533 13.664 7.824 12.064 7.824H5.536L7.84 5.36V18.064ZM33.4535 26.384C31.6615 26.384 29.9442 26.1493 28.3015 25.68C26.6588 25.1893 25.3362 24.56 24.3335 23.792L26.0935 19.888C27.0535 20.5707 28.1842 21.136 29.4855 21.584C30.8082 22.0107 32.1415 22.224 33.4855 22.224C34.5095 22.224 35.3308 22.128 35.9495 21.936C36.5895 21.7227 37.0588 21.4347 37.3575 21.072C37.6562 20.7093 37.8055 20.2933 37.8055 19.824C37.8055 19.2267 37.5708 18.7573 37.1015 18.416C36.6322 18.0533 36.0135 17.7653 35.2455 17.552C34.4775 17.3173 33.6242 17.104 32.6855 16.912C31.7682 16.6987 30.8402 16.4427 29.9015 16.144C28.9842 15.8453 28.1415 15.4613 27.3735 14.992C26.6055 14.5227 25.9762 13.904 25.4855 13.136C25.0162 12.368 24.7815 11.3867 24.7815 10.192C24.7815 8.912 25.1228 7.74933 25.8055 6.704C26.5095 5.63733 27.5548 4.79467 28.9415 4.176C30.3495 3.536 32.1095 3.216 34.2215 3.216C35.6295 3.216 37.0162 3.38667 38.3815 3.728C39.7468 4.048 40.9522 4.53867 41.9975 5.2L40.3975 9.136C39.3522 8.53867 38.3068 8.10133 37.2615 7.824C36.2162 7.52533 35.1922 7.376 34.1895 7.376C33.1868 7.376 32.3655 7.49333 31.7255 7.728C31.0855 7.96267 30.6268 8.272 30.3495 8.656C30.0722 9.01867 29.9335 9.44533 29.9335 9.936C29.9335 10.512 30.1682 10.9813 30.6375 11.344C31.1068 11.6853 31.7255 11.9627 32.4935 12.176C33.2615 12.3893 34.1042 12.6027 35.0215 12.816C35.9602 13.0293 36.8882 13.2747 37.8055 13.552C38.7442 13.8293 39.5975 14.2027 40.3655 14.672C41.1335 15.1413 41.7522 15.76 42.2215 16.528C42.7122 17.296 42.9575 18.2667 42.9575 19.44C42.9575 20.6987 42.6055 21.8507 41.9015 22.896C41.1975 23.9413 40.1415 24.784 38.7335 25.424C37.3468 26.064 35.5868 26.384 33.4535 26.384ZM46.4998 26V3.6H56.1958C58.2011 3.6 59.9291 3.93067 61.3798 4.592C62.8304 5.232 63.9504 6.16 64.7398 7.376C65.5291 8.592 65.9238 10.0427 65.9238 11.728C65.9238 13.392 65.5291 14.832 64.7398 16.048C63.9504 17.2427 62.8304 18.16 61.3798 18.8C59.9291 19.44 58.2011 19.76 56.1958 19.76H49.3798L51.6838 17.488V26H46.4998ZM60.7397 26L55.1398 17.872H60.6758L66.3398 26H60.7397ZM51.6838 18.064L49.3798 15.632H55.9078C57.5078 15.632 58.7024 15.2907 59.4918 14.608C60.2811 13.904 60.6758 12.944 60.6758 11.728C60.6758 10.4907 60.2811 9.53067 59.4918 8.848C58.7024 8.16533 57.5078 7.824 55.9078 7.824H49.3798L51.6838 5.36V18.064Z" fill="white"/>
<path d="M0.83 41V34H3.86C4.48667 34 5.02667 34.1033 5.48 34.31C5.93333 34.51 6.28333 34.8 6.53 35.18C6.77667 35.56 6.9 36.0133 6.9 36.54C6.9 37.06 6.77667 37.51 6.53 37.89C6.28333 38.27 5.93333 38.5633 5.48 38.77C5.02667 38.97 4.48667 39.07 3.86 39.07H1.73L2.45 38.34V41H0.83ZM2.45 38.52L1.73 37.75H3.77C4.27 37.75 4.64333 37.6433 4.89 37.43C5.13667 37.2167 5.26 36.92 5.26 36.54C5.26 36.1533 5.13667 35.8533 4.89 35.64C4.64333 35.4267 4.27 35.32 3.77 35.32H1.73L2.45 34.55V38.52ZM10.4968 41.08C9.92346 41.08 9.41346 40.96 8.9668 40.72C8.5268 40.48 8.1768 40.1533 7.9168 39.74C7.66346 39.32 7.5368 38.8433 7.5368 38.31C7.5368 37.77 7.66346 37.2933 7.9168 36.88C8.1768 36.46 8.5268 36.1333 8.9668 35.9C9.41346 35.66 9.92346 35.54 10.4968 35.54C11.0635 35.54 11.5701 35.66 12.0168 35.9C12.4635 36.1333 12.8135 36.4567 13.0668 36.87C13.3201 37.2833 13.4468 37.7633 13.4468 38.31C13.4468 38.8433 13.3201 39.32 13.0668 39.74C12.8135 40.1533 12.4635 40.48 12.0168 40.72C11.5701 40.96 11.0635 41.08 10.4968 41.08ZM10.4968 39.8C10.7568 39.8 10.9901 39.74 11.1968 39.62C11.4035 39.5 11.5668 39.33 11.6868 39.11C11.8068 38.8833 11.8668 38.6167 11.8668 38.31C11.8668 37.9967 11.8068 37.73 11.6868 37.51C11.5668 37.29 11.4035 37.12 11.1968 37C10.9901 36.88 10.7568 36.82 10.4968 36.82C10.2368 36.82 10.0035 36.88 9.7968 37C9.59013 37.12 9.42346 37.29 9.2968 37.51C9.1768 37.73 9.1168 37.9967 9.1168 38.31C9.1168 38.6167 9.1768 38.8833 9.2968 39.11C9.42346 39.33 9.59013 39.5 9.7968 39.62C10.0035 39.74 10.2368 39.8 10.4968 39.8ZM14.4895 41V33.58H16.0495V41H14.4895ZM17.4973 41V35.62H19.0573V41H17.4973ZM18.2773 34.87C17.9907 34.87 17.7573 34.7867 17.5773 34.62C17.3973 34.4533 17.3073 34.2467 17.3073 34C17.3073 33.7533 17.3973 33.5467 17.5773 33.38C17.7573 33.2133 17.9907 33.13 18.2773 33.13C18.564 33.13 18.7973 33.21 18.9773 33.37C19.1573 33.5233 19.2473 33.7233 19.2473 33.97C19.2473 34.23 19.1573 34.4467 18.9773 34.62C18.804 34.7867 18.5707 34.87 18.2773 34.87ZM23.1752 41.08C22.5618 41.08 22.0218 40.96 21.5552 40.72C21.0952 40.48 20.7385 40.1533 20.4852 39.74C20.2318 39.32 20.1052 38.8433 20.1052 38.31C20.1052 37.77 20.2285 37.2933 20.4752 36.88C20.7285 36.46 21.0718 36.1333 21.5052 35.9C21.9385 35.66 22.4285 35.54 22.9752 35.54C23.5018 35.54 23.9752 35.6533 24.3952 35.88C24.8218 36.1 25.1585 36.42 25.4052 36.84C25.6518 37.2533 25.7752 37.75 25.7752 38.33C25.7752 38.39 25.7718 38.46 25.7652 38.54C25.7585 38.6133 25.7518 38.6833 25.7452 38.75H21.3752V37.84H24.9252L24.3252 38.11C24.3252 37.83 24.2685 37.5867 24.1552 37.38C24.0418 37.1733 23.8852 37.0133 23.6852 36.9C23.4852 36.78 23.2518 36.72 22.9852 36.72C22.7185 36.72 22.4818 36.78 22.2752 36.9C22.0752 37.0133 21.9185 37.1767 21.8052 37.39C21.6918 37.5967 21.6352 37.8433 21.6352 38.13V38.37C21.6352 38.6633 21.6985 38.9233 21.8252 39.15C21.9585 39.37 22.1418 39.54 22.3752 39.66C22.6152 39.7733 22.8952 39.83 23.2152 39.83C23.5018 39.83 23.7518 39.7867 23.9652 39.7C24.1852 39.6133 24.3852 39.4833 24.5652 39.31L25.3952 40.21C25.1485 40.49 24.8385 40.7067 24.4652 40.86C24.0918 41.0067 23.6618 41.08 23.1752 41.08ZM29.1238 41.08C28.6171 41.08 28.1604 40.9667 27.7538 40.74C27.3471 40.5067 27.0238 40.1833 26.7838 39.77C26.5504 39.3567 26.4338 38.87 26.4338 38.31C26.4338 37.7433 26.5504 37.2533 26.7838 36.84C27.0238 36.4267 27.3471 36.1067 27.7538 35.88C28.1604 35.6533 28.6171 35.54 29.1238 35.54C29.5771 35.54 29.9738 35.64 30.3138 35.84C30.6538 36.04 30.9171 36.3433 31.1038 36.75C31.2904 37.1567 31.3838 37.6767 31.3838 38.31C31.3838 38.9367 31.2938 39.4567 31.1138 39.87C30.9338 40.2767 30.6738 40.58 30.3338 40.78C30.0004 40.98 29.5971 41.08 29.1238 41.08ZM29.3938 39.8C29.6471 39.8 29.8771 39.74 30.0838 39.62C30.2904 39.5 30.4538 39.33 30.5738 39.11C30.7004 38.8833 30.7638 38.6167 30.7638 38.31C30.7638 37.9967 30.7004 37.73 30.5738 37.51C30.4538 37.29 30.2904 37.12 30.0838 37C29.8771 36.88 29.6471 36.82 29.3938 36.82C29.1338 36.82 28.9004 36.88 28.6938 37C28.4871 37.12 28.3204 37.29 28.1938 37.51C28.0738 37.73 28.0138 37.9967 28.0138 38.31C28.0138 38.6167 28.0738 38.8833 28.1938 39.11C28.3204 39.33 28.4871 39.5 28.6938 39.62C28.9004 39.74 29.1338 39.8 29.3938 39.8ZM30.8038 41V39.9L30.8338 38.3L30.7338 36.71V33.58H32.2938V41H30.8038ZM33.7376 41V35.62H35.2276V37.14L35.0176 36.7C35.1776 36.32 35.4342 36.0333 35.7876 35.84C36.1409 35.64 36.5709 35.54 37.0776 35.54V36.98C37.0109 36.9733 36.9509 36.97 36.8976 36.97C36.8442 36.9633 36.7876 36.96 36.7276 36.96C36.3009 36.96 35.9542 37.0833 35.6876 37.33C35.4276 37.57 35.2976 37.9467 35.2976 38.46V41H33.7376ZM40.5261 41.08C39.9528 41.08 39.4428 40.96 38.9961 40.72C38.5561 40.48 38.2061 40.1533 37.9461 39.74C37.6928 39.32 37.5661 38.8433 37.5661 38.31C37.5661 37.77 37.6928 37.2933 37.9461 36.88C38.2061 36.46 38.5561 36.1333 38.9961 35.9C39.4428 35.66 39.9528 35.54 40.5261 35.54C41.0928 35.54 41.5994 35.66 42.0461 35.9C42.4928 36.1333 42.8428 36.4567 43.0961 36.87C43.3494 37.2833 43.4761 37.7633 43.4761 38.31C43.4761 38.8433 43.3494 39.32 43.0961 39.74C42.8428 40.1533 42.4928 40.48 42.0461 40.72C41.5994 40.96 41.0928 41.08 40.5261 41.08ZM40.5261 39.8C40.7861 39.8 41.0194 39.74 41.2261 39.62C41.4328 39.5 41.5961 39.33 41.7161 39.11C41.8361 38.8833 41.8961 38.6167 41.8961 38.31C41.8961 37.9967 41.8361 37.73 41.7161 37.51C41.5961 37.29 41.4328 37.12 41.2261 37C41.0194 36.88 40.7861 36.82 40.5261 36.82C40.2661 36.82 40.0328 36.88 39.8261 37C39.6194 37.12 39.4528 37.29 39.3261 37.51C39.2061 37.73 39.1461 37.9967 39.1461 38.31C39.1461 38.6167 39.2061 38.8833 39.3261 39.11C39.4528 39.33 39.6194 39.5 39.8261 39.62C40.0328 39.74 40.2661 39.8 40.5261 39.8ZM49.7609 41.12C49.2009 41.12 48.6642 41.0467 48.1509 40.9C47.6375 40.7467 47.2242 40.55 46.9109 40.31L47.4609 39.09C47.7609 39.3033 48.1142 39.48 48.5209 39.62C48.9342 39.7533 49.3509 39.82 49.7709 39.82C50.0909 39.82 50.3475 39.79 50.5409 39.73C50.7409 39.6633 50.8875 39.5733 50.9809 39.46C51.0742 39.3467 51.1209 39.2167 51.1209 39.07C51.1209 38.8833 51.0475 38.7367 50.9009 38.63C50.7542 38.5167 50.5609 38.4267 50.3209 38.36C50.0809 38.2867 49.8142 38.22 49.5209 38.16C49.2342 38.0933 48.9442 38.0133 48.6509 37.92C48.3642 37.8267 48.1009 37.7067 47.8609 37.56C47.6209 37.4133 47.4242 37.22 47.2709 36.98C47.1242 36.74 47.0509 36.4333 47.0509 36.06C47.0509 35.66 47.1575 35.2967 47.3709 34.97C47.5909 34.6367 47.9175 34.3733 48.3509 34.18C48.7909 33.98 49.3409 33.88 50.0009 33.88C50.4409 33.88 50.8742 33.9333 51.3009 34.04C51.7275 34.14 52.1042 34.2933 52.4309 34.5L51.9309 35.73C51.6042 35.5433 51.2775 35.4067 50.9509 35.32C50.6242 35.2267 50.3042 35.18 49.9909 35.18C49.6775 35.18 49.4209 35.2167 49.2209 35.29C49.0209 35.3633 48.8775 35.46 48.7909 35.58C48.7042 35.6933 48.6609 35.8267 48.6609 35.98C48.6609 36.16 48.7342 36.3067 48.8809 36.42C49.0275 36.5267 49.2209 36.6133 49.4609 36.68C49.7009 36.7467 49.9642 36.8133 50.2509 36.88C50.5442 36.9467 50.8342 37.0233 51.1209 37.11C51.4142 37.1967 51.6809 37.3133 51.9209 37.46C52.1609 37.6067 52.3542 37.8 52.5009 38.04C52.6542 38.28 52.7309 38.5833 52.7309 38.95C52.7309 39.3433 52.6209 39.7033 52.4009 40.03C52.1809 40.3567 51.8509 40.62 51.4109 40.82C50.9775 41.02 50.4275 41.12 49.7609 41.12ZM60.6178 35.54C61.0445 35.54 61.4211 35.6267 61.7478 35.8C62.0811 35.9667 62.3411 36.2267 62.5278 36.58C62.7211 36.9267 62.8178 37.3733 62.8178 37.92V41H61.2578V38.16C61.2578 37.7267 61.1678 37.4067 60.9878 37.2C60.8078 36.9933 60.5545 36.89 60.2278 36.89C60.0011 36.89 59.7978 36.9433 59.6178 37.05C59.4378 37.15 59.2978 37.3033 59.1978 37.51C59.0978 37.7167 59.0478 37.98 59.0478 38.3V41H57.4878V38.16C57.4878 37.7267 57.3978 37.4067 57.2178 37.2C57.0445 36.9933 56.7945 36.89 56.4678 36.89C56.2411 36.89 56.0378 36.9433 55.8578 37.05C55.6778 37.15 55.5378 37.3033 55.4378 37.51C55.3378 37.7167 55.2878 37.98 55.2878 38.3V41H53.7278V35.62H55.2178V37.09L54.9378 36.66C55.1245 36.2933 55.3878 36.0167 55.7278 35.83C56.0745 35.6367 56.4678 35.54 56.9078 35.54C57.4011 35.54 57.8311 35.6667 58.1978 35.92C58.5711 36.1667 58.8178 36.5467 58.9378 37.06L58.3878 36.91C58.5678 36.49 58.8545 36.1567 59.2478 35.91C59.6478 35.6633 60.1045 35.54 60.6178 35.54ZM67.5161 41V39.95L67.4161 39.72V37.84C67.4161 37.5067 67.3128 37.2467 67.1061 37.06C66.9061 36.8733 66.5961 36.78 66.1761 36.78C65.8894 36.78 65.6061 36.8267 65.3261 36.92C65.0528 37.0067 64.8194 37.1267 64.6261 37.28L64.0661 36.19C64.3594 35.9833 64.7128 35.8233 65.1261 35.71C65.5394 35.5967 65.9594 35.54 66.3861 35.54C67.2061 35.54 67.8428 35.7333 68.2961 36.12C68.7494 36.5067 68.9761 37.11 68.9761 37.93V41H67.5161ZM65.8761 41.08C65.4561 41.08 65.0961 41.01 64.7961 40.87C64.4961 40.7233 64.2661 40.5267 64.1061 40.28C63.9461 40.0333 63.8661 39.7567 63.8661 39.45C63.8661 39.13 63.9428 38.85 64.0961 38.61C64.2561 38.37 64.5061 38.1833 64.8461 38.05C65.1861 37.91 65.6294 37.84 66.1761 37.84H67.6061V38.75H66.3461C65.9794 38.75 65.7261 38.81 65.5861 38.93C65.4528 39.05 65.3861 39.2 65.3861 39.38C65.3861 39.58 65.4628 39.74 65.6161 39.86C65.7761 39.9733 65.9928 40.03 66.2661 40.03C66.5261 40.03 66.7594 39.97 66.9661 39.85C67.1728 39.7233 67.3228 39.54 67.4161 39.3L67.6561 40.02C67.5428 40.3667 67.3361 40.63 67.0361 40.81C66.7361 40.99 66.3494 41.08 65.8761 41.08ZM70.388 41V35.62H71.878V37.14L71.668 36.7C71.828 36.32 72.0846 36.0333 72.438 35.84C72.7913 35.64 73.2213 35.54 73.728 35.54V36.98C73.6613 36.9733 73.6013 36.97 73.548 36.97C73.4946 36.9633 73.438 36.96 73.378 36.96C72.9513 36.96 72.6046 37.0833 72.338 37.33C72.078 37.57 71.948 37.9467 71.948 38.46V41H70.388ZM77.0411 41.08C76.4078 41.08 75.9144 40.92 75.5611 40.6C75.2078 40.2733 75.0311 39.79 75.0311 39.15V34.43H76.5911V39.13C76.5911 39.3567 76.6511 39.5333 76.7711 39.66C76.8911 39.78 77.0544 39.84 77.2611 39.84C77.5078 39.84 77.7178 39.7733 77.8911 39.64L78.3111 40.74C78.1511 40.8533 77.9578 40.94 77.7311 41C77.5111 41.0533 77.2811 41.08 77.0411 41.08ZM74.2011 36.94V35.74H77.9311V36.94H74.2011ZM82.1288 41V34H85.1588C85.7855 34 86.3255 34.1033 86.7788 34.31C87.2322 34.51 87.5822 34.8 87.8288 35.18C88.0755 35.56 88.1988 36.0133 88.1988 36.54C88.1988 37.06 88.0755 37.51 87.8288 37.89C87.5822 38.2633 87.2322 38.55 86.7788 38.75C86.3255 38.95 85.7855 39.05 85.1588 39.05H83.0288L83.7488 38.34V41H82.1288ZM86.5788 41L84.8288 38.46H86.5588L88.3288 41H86.5788ZM83.7488 38.52L83.0288 37.76H85.0688C85.5688 37.76 85.9422 37.6533 86.1888 37.44C86.4355 37.22 86.5588 36.92 86.5588 36.54C86.5588 36.1533 86.4355 35.8533 86.1888 35.64C85.9422 35.4267 85.5688 35.32 85.0688 35.32H83.0288L83.7488 34.55V38.52ZM92.0423 41.08C91.429 41.08 90.889 40.96 90.4223 40.72C89.9623 40.48 89.6057 40.1533 89.3523 39.74C89.099 39.32 88.9723 38.8433 88.9723 38.31C88.9723 37.77 89.0957 37.2933 89.3423 36.88C89.5957 36.46 89.939 36.1333 90.3723 35.9C90.8057 35.66 91.2957 35.54 91.8423 35.54C92.369 35.54 92.8423 35.6533 93.2623 35.88C93.689 36.1 94.0257 36.42 94.2723 36.84C94.519 37.2533 94.6423 37.75 94.6423 38.33C94.6423 38.39 94.639 38.46 94.6323 38.54C94.6257 38.6133 94.619 38.6833 94.6123 38.75H90.2423V37.84H93.7923L93.1923 38.11C93.1923 37.83 93.1357 37.5867 93.0223 37.38C92.909 37.1733 92.7523 37.0133 92.5523 36.9C92.3523 36.78 92.119 36.72 91.8523 36.72C91.5857 36.72 91.349 36.78 91.1423 36.9C90.9423 37.0133 90.7857 37.1767 90.6723 37.39C90.559 37.5967 90.5023 37.8433 90.5023 38.13V38.37C90.5023 38.6633 90.5657 38.9233 90.6923 39.15C90.8257 39.37 91.009 39.54 91.2423 39.66C91.4823 39.7733 91.7623 39.83 92.0823 39.83C92.369 39.83 92.619 39.7867 92.8323 39.7C93.0523 39.6133 93.2523 39.4833 93.4323 39.31L94.2623 40.21C94.0157 40.49 93.7057 40.7067 93.3323 40.86C92.959 41.0067 92.529 41.08 92.0423 41.08ZM98.8345 41V39.95L98.7345 39.72V37.84C98.7345 37.5067 98.6311 37.2467 98.4245 37.06C98.2245 36.8733 97.9145 36.78 97.4945 36.78C97.2078 36.78 96.9245 36.8267 96.6445 36.92C96.3711 37.0067 96.1378 37.1267 95.9445 37.28L95.3845 36.19C95.6778 35.9833 96.0311 35.8233 96.4445 35.71C96.8578 35.5967 97.2778 35.54 97.7045 35.54C98.5245 35.54 99.1611 35.7333 99.6145 36.12C100.068 36.5067 100.294 37.11 100.294 37.93V41H98.8345ZM97.1945 41.08C96.7745 41.08 96.4145 41.01 96.1145 40.87C95.8145 40.7233 95.5845 40.5267 95.4245 40.28C95.2645 40.0333 95.1845 39.7567 95.1845 39.45C95.1845 39.13 95.2611 38.85 95.4145 38.61C95.5745 38.37 95.8245 38.1833 96.1645 38.05C96.5045 37.91 96.9478 37.84 97.4945 37.84H98.9245V38.75H97.6645C97.2978 38.75 97.0445 38.81 96.9045 38.93C96.7711 39.05 96.7045 39.2 96.7045 39.38C96.7045 39.58 96.7811 39.74 96.9345 39.86C97.0945 39.9733 97.3111 40.03 97.5845 40.03C97.8445 40.03 98.0778 39.97 98.2845 39.85C98.4911 39.7233 98.6411 39.54 98.7345 39.3L98.9745 40.02C98.8611 40.3667 98.6545 40.63 98.3545 40.81C98.0545 40.99 97.6678 41.08 97.1945 41.08ZM104.055 41.08C103.549 41.08 103.092 40.9667 102.685 40.74C102.279 40.5067 101.955 40.1833 101.715 39.77C101.482 39.3567 101.365 38.87 101.365 38.31C101.365 37.7433 101.482 37.2533 101.715 36.84C101.955 36.4267 102.279 36.1067 102.685 35.88C103.092 35.6533 103.549 35.54 104.055 35.54C104.509 35.54 104.905 35.64 105.245 35.84C105.585 36.04 105.849 36.3433 106.035 36.75C106.222 37.1567 106.315 37.6767 106.315 38.31C106.315 38.9367 106.225 39.4567 106.045 39.87C105.865 40.2767 105.605 40.58 105.265 40.78C104.932 40.98 104.529 41.08 104.055 41.08ZM104.325 39.8C104.579 39.8 104.809 39.74 105.015 39.62C105.222 39.5 105.385 39.33 105.505 39.11C105.632 38.8833 105.695 38.6167 105.695 38.31C105.695 37.9967 105.632 37.73 105.505 37.51C105.385 37.29 105.222 37.12 105.015 37C104.809 36.88 104.579 36.82 104.325 36.82C104.065 36.82 103.832 36.88 103.625 37C103.419 37.12 103.252 37.29 103.125 37.51C103.005 37.73 102.945 37.9967 102.945 38.31C102.945 38.6167 103.005 38.8833 103.125 39.11C103.252 39.33 103.419 39.5 103.625 39.62C103.832 39.74 104.065 39.8 104.325 39.8ZM105.735 41V39.9L105.765 38.3L105.665 36.71V33.58H107.225V41H105.735ZM111.339 41.08C110.726 41.08 110.186 40.96 109.719 40.72C109.259 40.48 108.903 40.1533 108.649 39.74C108.396 39.32 108.269 38.8433 108.269 38.31C108.269 37.77 108.393 37.2933 108.639 36.88C108.893 36.46 109.236 36.1333 109.669 35.9C110.103 35.66 110.593 35.54 111.139 35.54C111.666 35.54 112.139 35.6533 112.559 35.88C112.986 36.1 113.323 36.42 113.569 36.84C113.816 37.2533 113.939 37.75 113.939 38.33C113.939 38.39 113.936 38.46 113.929 38.54C113.923 38.6133 113.916 38.6833 113.909 38.75H109.539V37.84H113.089L112.489 38.11C112.489 37.83 112.433 37.5867 112.319 37.38C112.206 37.1733 112.049 37.0133 111.849 36.9C111.649 36.78 111.416 36.72 111.149 36.72C110.883 36.72 110.646 36.78 110.439 36.9C110.239 37.0133 110.083 37.1767 109.969 37.39C109.856 37.5967 109.799 37.8433 109.799 38.13V38.37C109.799 38.6633 109.863 38.9233 109.989 39.15C110.123 39.37 110.306 39.54 110.539 39.66C110.779 39.7733 111.059 39.83 111.379 39.83C111.666 39.83 111.916 39.7867 112.129 39.7C112.349 39.6133 112.549 39.4833 112.729 39.31L113.559 40.21C113.313 40.49 113.003 40.7067 112.629 40.86C112.256 41.0067 111.826 41.08 111.339 41.08ZM114.978 41V35.62H116.468V37.14L116.258 36.7C116.418 36.32 116.674 36.0333 117.028 35.84C117.381 35.64 117.811 35.54 118.318 35.54V36.98C118.251 36.9733 118.191 36.97 118.138 36.97C118.084 36.9633 118.028 36.96 117.968 36.96C117.541 36.96 117.194 37.0833 116.928 37.33C116.668 37.57 116.538 37.9467 116.538 38.46V41H114.978Z" fill="white"/>
</svg>
