<svg width="20" height="20" viewBox="0 0 20 20" fill="none" xmlns="http://www.w3.org/2000/svg">
<path d="M10.4634 0C14.7642 0 18.7539 3.3811 19.5518 8.01997C19.7953 9.42651 19.7276 10.8195 19.349 12.199C19.3219 12.2937 19.349 12.4289 19.4031 12.5236C20.4444 14.5658 20.0387 16.9867 18.3887 18.5825C16.7252 20.1919 14.115 20.4624 12.154 19.2317C12.0052 19.137 11.8835 19.0829 11.6941 19.11C10.1118 19.394 8.54296 19.2723 7.0147 18.7584C6.58192 18.6096 6.16266 18.6096 5.71636 18.7448C4.58031 19.0965 3.44426 19.421 2.30821 19.7456C1.3074 20.0296 0.333644 19.4751 0.0766807 18.4743C-0.0179902 18.0957 0.022583 17.717 0.157827 17.3653C0.509462 16.5133 0.834047 15.6477 1.19921 14.7957C1.40207 14.3223 1.38855 13.876 1.19921 13.4162C0.644706 12.1043 0.360693 10.7384 0.44184 9.33184C0.644706 5.66673 2.36231 2.92127 5.56759 1.12253C6.9606 0.351635 8.47534 0.0135244 10.4634 0ZM18.0777 10.8601C18.0912 10.7925 18.1182 10.7249 18.1182 10.6437C18.2535 9.42651 18.1588 8.24989 17.7666 7.08679C16.4683 3.23233 12.6814 0.960233 8.66468 1.63645C4.87785 2.25858 1.99715 5.5991 1.94305 9.44004C1.916 10.6437 2.15944 11.7933 2.61927 12.9023C2.95738 13.7137 2.95738 14.5252 2.61927 15.3367C2.28116 16.1481 1.94305 16.9731 1.63199 17.7981C1.59141 17.9198 1.57789 18.1092 1.63199 18.2039C1.68609 18.2715 1.88895 18.2715 2.01067 18.2309C3.11967 17.9198 4.22867 17.5953 5.32415 17.2571C6.0139 17.0408 6.67659 17.0678 7.37986 17.2571C8.02903 17.433 8.6782 17.5682 9.3409 17.6764C9.73311 17.7305 10.1388 17.6764 10.5446 17.6764C9.02984 15.2555 9.78721 12.5777 11.3019 11.1171C12.7085 9.76462 15.5892 8.92611 18.0777 10.8195V10.8601ZM11.2343 14.8633C11.2343 16.8514 12.8302 18.4743 14.8183 18.4879C16.8064 18.4879 18.4428 16.8785 18.4564 14.9039C18.4564 12.9158 16.8605 11.2794 14.8724 11.2794C12.8572 11.2794 11.2478 12.8617 11.2343 14.8768V14.8633Z" fill="#272833"/>
</svg>
