<svg width="19" height="19" viewBox="0 0 19 19" fill="none" xmlns="http://www.w3.org/2000/svg">
<path d="M17.627 8.22591H10.5762V1.17513C10.5762 0.526128 10.05 0 9.40104 0C8.75204 0 8.22591 0.526128 8.22591 1.17513V8.22591H1.17513C0.526128 8.22591 0 8.75204 0 9.40104C0 10.05 0.526128 10.5762 1.17513 10.5762H8.22591V17.627C8.22591 18.276 8.75204 18.8021 9.40104 18.8021C10.05 18.8021 10.5762 18.276 10.5762 17.627V10.5762H17.627C18.276 10.5762 18.8021 10.05 18.8021 9.40104C18.8021 8.75204 18.276 8.22591 17.627 8.22591Z" fill="#230F46" fill-opacity="0.94"/>
</svg>
