<svg width="21" height="21" viewBox="0 0 21 21" fill="none" xmlns="http://www.w3.org/2000/svg">
<path d="M20.1418 18.4392L16.2022 14.4983C19.15 10.5594 18.3462 4.97676 14.4069 2.02923C10.4677 -0.918292 4.88463 -0.114598 1.93685 3.82433C-1.01092 7.76325 -0.207158 13.3458 3.73209 16.2934C6.89643 18.6611 11.2426 18.6611 14.4069 16.2934L18.3482 20.2343C18.8435 20.7295 19.6465 20.7295 20.1417 20.2343C20.637 19.739 20.637 18.9361 20.1417 18.4409L20.1418 18.4392ZM9.10236 15.5327C5.60134 15.5327 2.76324 12.6949 2.76324 9.19415C2.76324 5.69342 5.60134 2.85555 9.10236 2.85555C12.6034 2.85555 15.4415 5.69342 15.4415 9.19415C15.4378 12.6933 12.6018 15.529 9.10236 15.5327Z" fill="white" fill-opacity="0.94"/>
</svg>
