<svg width="20" height="20" viewBox="0 0 20 20" fill="none" xmlns="http://www.w3.org/2000/svg">
<g clip-path="url(#clip0_1994_6534)">
<path d="M11.5693 9.99197C11.2466 9.95474 10.9115 9.92992 10.5888 9.89268C8.62779 9.71892 6.65436 9.53275 4.69335 9.35899C3.7749 9.27211 2.85645 9.18523 1.938 9.09835C1.87594 9.09835 1.77665 9.01147 1.76424 8.937C1.1809 6.65328 0.609972 4.36957 0.0514552 2.08586C-0.109894 1.42805 0.113513 0.84471 0.647206 0.410308C1.19331 -0.0240937 1.81389 -0.110974 2.44687 0.186902C3.30326 0.596481 4.14724 1.03088 5.00364 1.45287C9.63312 3.76141 14.2626 6.08236 18.8921 8.39089C19.401 8.63912 19.7733 8.99905 19.9346 9.54516C20.1581 10.3519 19.7981 11.1587 19.0162 11.5558C17.1917 12.4743 15.3548 13.3803 13.5303 14.2988C9.88135 16.1232 6.23237 17.9477 2.5834 19.7722C1.49119 20.3183 0.287273 19.7722 0.0514552 18.618C0.00180928 18.3449 0.0142207 18.047 0.0886896 17.7864C0.622383 15.5771 1.19331 13.3679 1.72701 11.1587C1.77665 10.9725 1.85112 10.9228 2.03729 10.9104C3.99831 10.7367 5.97173 10.5505 7.93275 10.3643C9.11184 10.2526 10.2909 10.1533 11.47 10.0416C11.5073 10.0416 11.5445 10.0416 11.5817 10.0292C11.5817 10.0168 11.5817 9.99197 11.5817 9.97956L11.5693 9.99197Z" fill="#FCFCFC"/>
</g>
<defs>
<clipPath id="clip0_1994_6534">
<rect width="20" height="20" fill="white"/>
</clipPath>
</defs>
</svg>
