<svg width="20" height="20" viewBox="0 0 20 20" fill="none" xmlns="http://www.w3.org/2000/svg">
<path d="M18.5714 8.57758H4.28571L8.98571 3.87758C9.11961 3.74478 9.22589 3.58678 9.29842 3.41269C9.37094 3.23861 9.40828 3.05189 9.40828 2.8633C9.40828 2.67471 9.37094 2.48799 9.29842 2.3139C9.22589 2.13982 9.11961 1.98182 8.98571 1.84901C8.71805 1.58294 8.35598 1.43359 7.97857 1.43359C7.60116 1.43359 7.23909 1.58294 6.97143 1.84901L0.842857 7.99187C0.306303 8.52523 0.0031897 9.24962 0 10.0062C0.00695227 10.7577 0.309778 11.4763 0.842857 12.0062L6.97143 18.149C7.10463 18.2813 7.26257 18.386 7.43624 18.4572C7.60992 18.5284 7.79592 18.5648 7.98362 18.5641C8.17133 18.5634 8.35707 18.5258 8.53023 18.4534C8.7034 18.3809 8.8606 18.2751 8.99286 18.1419C9.12512 18.0087 9.22985 17.8507 9.30107 17.6771C9.37229 17.5034 9.4086 17.3174 9.40794 17.1297C9.40727 16.942 9.36965 16.7562 9.2972 16.5831C9.22476 16.4099 9.11891 16.2527 8.98571 16.1204L4.28571 11.4347H18.5714C18.9503 11.4347 19.3137 11.2842 19.5816 11.0163C19.8495 10.7484 20 10.385 20 10.0062C20 9.62727 19.8495 9.26391 19.5816 8.996C19.3137 8.72809 18.9503 8.57758 18.5714 8.57758Z" fill="#FCFCFC"/>
</svg>
