<svg width="17" height="10" viewBox="0 0 17 10" fill="none" xmlns="http://www.w3.org/2000/svg">
<path d="M1.27781 0.880453C1.41324 0.880272 1.54736 0.906909 1.67244 0.958828C1.79752 1.01075 1.91107 1.08692 2.00656 1.18295L7.28175 6.45745C7.44136 6.6171 7.63085 6.74374 7.83941 6.83015C8.04797 6.91655 8.2715 6.96102 8.49725 6.96102C8.723 6.96102 8.94653 6.91655 9.15509 6.83015C9.36365 6.74374 9.55314 6.6171 9.71275 6.45745L14.9797 1.18983C15.0748 1.09133 15.1886 1.01277 15.3144 0.958724C15.4402 0.904677 15.5756 0.876229 15.7125 0.875039C15.8494 0.873849 15.9852 0.899941 16.112 0.951793C16.2387 1.00365 16.3538 1.08022 16.4507 1.17705C16.5475 1.27387 16.6241 1.38901 16.6759 1.51575C16.7278 1.64249 16.7539 1.77828 16.7527 1.91521C16.7515 2.05214 16.723 2.18746 16.669 2.31328C16.6149 2.43909 16.5364 2.55289 16.4379 2.64802L11.1709 7.91564C10.4614 8.62389 9.49979 9.02166 8.49725 9.02166C7.49471 9.02166 6.53312 8.62389 5.82356 7.91564L0.548374 2.64114C0.404057 2.49692 0.305765 2.31312 0.265935 2.11302C0.226105 1.91291 0.246528 1.70549 0.32462 1.517C0.402711 1.3285 0.534961 1.16741 0.704635 1.0541C0.874309 0.940792 1.07378 0.880361 1.27781 0.880453Z" fill="#1B1B1B"/>
</svg>
