<svg width="20" height="20" viewBox="0 0 20 20" fill="none" xmlns="http://www.w3.org/2000/svg">
<g clip-path="url(#clip0_1994_6374)">
<path d="M6.78388 19.9989C6.42295 19.8832 6.14796 19.6796 6.06619 19.2853C6.0464 19.1911 6.04015 19.0921 6.04015 18.9958C6.03911 13.0053 6.03859 7.01436 6.03963 1.02392C6.03963 0.496328 6.36514 0.110402 6.85523 0.0463413C7.30209 -0.0119903 7.7375 0.285917 7.85156 0.737466C7.87655 0.836422 7.8802 0.94319 7.8802 1.04631C7.88124 7.02374 7.88176 13.0017 7.88124 18.9791C7.88124 19.5312 7.71041 19.7614 7.13439 19.9994H6.78336L6.78388 19.9989Z" fill="white"/>
<path d="M0.000520818 9.23727C0.113017 9.05968 0.195307 8.84979 0.344261 8.71125C0.612482 8.46178 0.94893 8.42324 1.28746 8.57011C1.62495 8.71646 1.82442 8.98155 1.83849 9.35185C1.85463 9.77945 1.85411 10.2081 1.84109 10.6357C1.82599 11.1252 1.51037 11.4747 1.0583 11.533C0.577587 11.595 0.186974 11.3383 0.0354156 10.8622C0.0281242 10.8388 0.0119788 10.818 0 10.7961C0 10.2763 0 9.75653 0 9.23675L0.000520818 9.23727Z" fill="white"/>
<path d="M9.05045 10.0104C9.05045 8.1526 9.05045 6.29484 9.05045 4.43709C9.05045 3.97512 9.25773 3.64232 9.63428 3.49076C10.2275 3.25171 10.8603 3.66107 10.9066 4.31365C10.9098 4.35897 10.9087 4.4048 10.9087 4.45011C10.9087 8.15937 10.9087 11.8681 10.9087 15.5774C10.9087 16.0841 10.6952 16.4258 10.2988 16.5622C9.65824 16.7826 9.0593 16.3456 9.05253 15.6425C9.04524 14.9149 9.05097 14.1873 9.05097 13.4597C9.05097 12.3098 9.05097 11.1603 9.05097 10.0104H9.05045Z" fill="white"/>
<path d="M16.9445 10.0239C16.9445 11.8749 16.945 13.7258 16.9445 15.5768C16.9445 16.0862 16.7309 16.4258 16.3346 16.5612C15.7315 16.7674 15.1482 16.3789 15.095 15.7346C15.0909 15.6831 15.0919 15.631 15.0919 15.5789C15.0919 11.8639 15.0919 8.14945 15.0919 4.43446C15.0919 3.92979 15.3476 3.57094 15.7862 3.45272C16.2992 3.31418 16.8382 3.6574 16.9231 4.18082C16.9408 4.28915 16.9445 4.40061 16.9445 4.5105C16.9455 6.34846 16.9455 8.18643 16.9455 10.0244L16.9445 10.0239Z" fill="white"/>
<path d="M4.86916 10.0243C4.86916 11.3232 4.87072 12.6221 4.86864 13.921C4.8676 14.4736 4.57698 14.8335 4.07491 14.9153C3.58066 14.9955 3.11609 14.6611 3.03901 14.1663C3.0239 14.0705 3.01661 13.9726 3.01661 13.8757C3.01557 11.2971 3.01505 8.7191 3.01661 6.14053C3.01661 5.61867 3.27546 5.25358 3.71607 5.14317C4.32282 4.99161 4.86708 5.43326 4.86864 6.08845C4.87228 7.40039 4.86968 8.71233 4.86968 10.0243H4.86916Z" fill="white"/>
<path d="M12.0804 10.0101C12.0804 9.24393 12.0752 8.47781 12.082 7.71169C12.0861 7.2393 12.4351 6.86275 12.8908 6.81432C13.3674 6.7638 13.7835 7.05181 13.896 7.51534C13.9158 7.59606 13.921 7.682 13.921 7.76585C13.9225 9.26581 13.9241 10.7652 13.921 12.2652C13.9199 12.8063 13.5955 13.1792 13.0991 13.2261C12.532 13.2792 12.0914 12.9006 12.0835 12.3282C12.0731 11.5558 12.0809 10.7829 12.0809 10.0106L12.0804 10.0101Z" fill="white"/>
<path d="M18.1189 10.0054C18.1189 9.78461 18.108 9.56326 18.121 9.34348C18.1507 8.85912 18.5543 8.4935 19.0413 8.49611C19.5236 8.49871 19.936 8.87422 19.9543 9.35598C19.9709 9.79034 19.9699 10.2263 19.9543 10.6606C19.936 11.1809 19.5439 11.5429 19.0288 11.5413C18.5231 11.5398 18.1486 11.1856 18.1194 10.6679C18.1069 10.4481 18.1173 10.2268 18.1173 10.006C18.1173 10.006 18.1174 10.006 18.1179 10.006L18.1189 10.0054Z" fill="white"/>
</g>
<defs>
<clipPath id="clip0_1994_6374">
<rect width="20" height="20" fill="white"/>
</clipPath>
</defs>
</svg>
