<svg width="36" height="32" viewBox="0 0 36 32" fill="none" xmlns="http://www.w3.org/2000/svg">
<g clip-path="url(#clip0_2068_5511)">
<path d="M12.4586 27.4049L12.9817 27.6635C15.1617 28.9562 17.6031 29.5595 20.0446 29.5595C27.7177 29.5595 33.9957 23.3542 33.9957 15.77C33.9957 12.1503 32.5133 8.6167 29.8976 6.03112C27.2817 3.44555 23.7938 1.98047 20.0446 1.98047C12.3715 1.98047 6.09334 8.18575 6.18059 15.8562C6.18059 18.4417 6.96534 20.9411 8.27321 23.0957L8.62196 23.6128L7.22696 28.6978L12.4586 27.4049Z" fill="#00E676"/>
<path d="M31.3791 4.65396C28.4145 1.63756 24.3164 0 20.131 0C11.2373 0 4.08725 7.1533 4.17437 15.8579C4.17437 18.6158 4.95912 21.2877 6.26712 23.7008L4 31.8883L12.4579 29.7337C14.8121 31.0265 17.4279 31.6298 20.0439 31.6298C28.8505 31.6298 36.0005 24.4764 36.0005 15.7719C36.0005 11.5488 34.3436 7.58425 31.3791 4.65396ZM20.131 28.9581C17.7768 28.9581 15.4225 28.355 13.417 27.1484L12.8939 26.8898L7.83663 28.1825L9.1445 23.2701L8.79575 22.7529C4.95913 16.6338 6.79025 8.53226 13.0682 4.74008C19.3462 0.948016 27.4554 2.75793 31.292 8.96321C35.1285 15.1685 33.2974 23.1837 27.0195 26.9759C25.0139 28.2686 22.5725 28.958 20.131 28.958V28.9581ZM27.8041 19.3918L26.845 18.9608C26.845 18.9608 25.45 18.3575 24.578 17.9265C24.4907 17.9265 24.4036 17.8403 24.3164 17.8403C24.0548 17.8403 23.8804 17.9265 23.706 18.0128C23.706 18.0128 23.6189 18.0989 22.3981 19.4779C22.3109 19.6502 22.1365 19.7365 21.9621 19.7365H21.8749C21.7877 19.7365 21.6134 19.6502 21.5261 19.5641L21.0901 19.3918C20.131 18.9608 19.2591 18.4436 18.5615 17.7542C18.3871 17.5818 18.1255 17.4095 17.9511 17.2371C17.3408 16.6338 16.7304 15.9443 16.2945 15.1686L16.2072 14.9963C16.1201 14.91 16.1201 14.8239 16.0329 14.6516C16.0329 14.4792 16.0329 14.3068 16.1201 14.2206C16.1201 14.2206 16.4689 13.7897 16.7304 13.5312C16.9049 13.3587 16.992 13.1002 17.1664 12.9279C17.3408 12.6693 17.428 12.3246 17.3407 12.066C17.2536 11.635 16.2073 9.30805 15.9458 8.79098C15.7713 8.53239 15.597 8.44627 15.3354 8.36003H14.3763C14.2018 8.36003 14.0275 8.44627 13.853 8.44627L13.7657 8.53239C13.5914 8.61863 13.417 8.79098 13.2426 8.8771C13.0683 9.04958 12.981 9.22181 12.8066 9.39429C12.1963 10.1699 11.8475 11.118 11.8475 12.066C11.8475 12.7554 12.0219 13.4449 12.2835 14.0482L12.3708 14.3068C13.1555 15.9443 14.2018 17.4095 15.597 18.7022L15.9458 19.0469C16.2073 19.3055 16.4689 19.4779 16.6433 19.7363C18.4744 21.2878 20.567 22.4082 22.9212 23.0115C23.1829 23.0976 23.5316 23.0976 23.7932 23.1838H24.6651C25.1011 23.1838 25.6243 23.0115 25.9731 22.8391C26.2346 22.6667 26.409 22.6667 26.5834 22.4944L26.7579 22.3219C26.9323 22.1496 27.1066 22.0634 27.281 21.8911C27.4554 21.7187 27.6297 21.5464 27.717 21.3739C27.8914 21.0292 27.9785 20.5982 28.0658 20.1674V19.5641C28.0658 19.5641 27.9785 19.4779 27.8041 19.3918Z" fill="white"/>
</g>
<defs>
<clipPath id="clip0_2068_5511">
<rect width="32" height="32" fill="white" transform="translate(4)"/>
</clipPath>
</defs>
</svg>
